# AST/ASF file generated using VICON BodyLanguage
# -----------------------------------------------
:version 1.10
:name VICON
:units
  mass 1.0
  length 0.45
  angle deg
:documentation
   .ast/.asf automatically generated from VICON data using
   VICON BodyBuilder and BodyLanguage model FoxedUp or BRILLIANT.MOD
:root
   order TX TY TZ RX RY RZ
   axis XYZ
   position 0 0 0  
   orientation 0 0 0 
:bonedata
  begin
     id 1 
     name lhipjoint
     direction 0.707368 -0.647095 0.284426 
     length 2.60678 
     axis 0 0 0  XYZ
  end
  begin
     id 2 
     name lfemur
     direction 0.34202 -0.939693 0  
     length 6.63812  
     axis 0 0 20  XYZ
    dof rx ry rz
    limits (-160.0 20.0)
           (-70.0 70.0)
           (-60.0 70.0)
  end
  begin
     id 3 
     name ltibia
     direction 0.34202 -0.939693 0   
     length 7.51178   
     axis 0 0 20   XYZ
    dof rx
    limits (-10.0 170.0)
  end
  begin
     id 4 
     name lfoot
     direction 0.121251 -0.333133 0.935051   
     length 1.83716   
     axis -90 7.62852e-016 20   XYZ
    dof rx rz
    limits (-45.0 90.0)
           (-70.0 20.0)
  end
  begin
     id 5 
     name ltoes
     direction 1.53611e-011 -4.21962e-011 1   
     length 0.916133   
     axis -90 7.62852e-016 20   XYZ
    dof rx
    limits (-90.0 20.0)
  end
  begin
     id 6 
     name rhipjoint
     direction -0.692419 -0.660507 0.290321   
     length 2.55385  
     axis 0 0 0  XYZ 
  end
  begin
     id 7 
     name rfemur
     direction -0.34202 -0.939693 0   
     length 7.29079   
     axis 0 0 -20   XYZ
    dof rx ry rz
    limits (-160.0 20.0)
           (-70.0 70.0)
           (-70.0 60.0)
  end
  begin
     id 8 
     name rtibia
     direction -0.34202 -0.939693 0   
     length 7.47143   
     axis 0 0 -20   XYZ
    dof rx
    limits (-10.0 170.0)
 end
 begin
     id 9 
     name rfoot
     direction -0.119907 -0.329441 0.936532   
     length 1.79439  
     axis -90 -7.62852e-016 -20   XYZ
    dof rx rz
    limits (-45.0 90.0)
           (-20.0 70.0)
  end
  begin
     id 10 
     name rtoes
     direction -1.53571e-011 -4.21961e-011 1   
     length 0.896039   
     axis -90 -7.62852e-016 -20   XYZ
    dof rx
    limits (-90.0 20.0)
  end
  begin
     id 11 
     name lowerback
     direction 0.0367721 0.992912 -0.113016   
     length 1.73542   
     axis 0 0 0   XYZ
    dof rx ry rz
    limits (-20.0 45.0)
           (-30.0 30.0)
           (-30.0 30.0)
  end
  begin
     id 12 
     name upperback
     direction -0.000314626 0.990678 0.136227   
     length 1.7514   
     axis 0 0 0   XYZ
    dof rx ry rz
    limits (-20.0 45.0)
           (-30.0 30.0)
           (-30.0 30.0)
  end
  begin
     id 13 
     name thorax
     direction -0.0226159 0.981151 0.191917   
     length 1.71471   
     axis 0 0 0   XYZ
    dof rx ry rz
    limits (-20.0 45.0)
           (-30.0 30.0)
           (-30.0 30.0)
  end
  begin
     id 14 
     name lowerneck
     direction 0.0219333 0.998071 0.0580739   
     length 1.65882   
     axis 0 0 0   XYZ
    dof rx ry rz
    limits (-20.0 45.0)
           (-30.0 30.0)
           (-30.0 30.0)
  end
  begin
     id 15 
     name upperneck
     direction 0.0384529 0.980058 -0.194957   
     length 1.6612   
     axis 0 0 0   XYZ
    dof rx ry rz
    limits (-20.0 45.0)
           (-30.0 30.0)
           (-30.0 30.0)
  end
  begin
     id 16
     name head
     direction 0.00592123 0.997421 -0.0715234  
     length 1.68077  
     axis 0 0 0   XYZ
    dof rx ry rz
    limits (-20.0 45.0)
           (-30.0 30.0)
           (-30.0 30.0)
  end
  begin
     id 17 
     name lclavicle
     direction 0.904803 0.417826 0.0821728  
     length 3.42227  
     axis 0 0 0   XYZ
    dof ry rz
    limits (-20.0 10.0)
           (0.0 20.0)
  end
  begin
     id 18 
     name lhumerus
     direction 1 -4.48965e-011 -2.68786e-027   
     length 5.11878   
     axis -180 -30 -90   XYZ
    dof rx ry rz
    limits (-60.0 90.0)
           (-90.0 90.0)
           (-90.0 90.0)
  end
  begin
     id 19
     name lradius
     direction 1 -4.48965e-011 2.61168e-028   
     length 3.59971   
     axis -180 -30 -90   XYZ
    dof rx
    limits (-10.0 170.0)
  end
  begin
     id 20
     name lwrist
     direction 1 -4.48965e-011 1.58672e-027   
     length 1.79985   
     axis -1.65735e-015 90 90   XYZ
    dof ry
    limits (-180.0 0.0)
 end
  begin
     id 21 
     name lhand
     direction 1 -4.48942e-011 3.17344e-027   
     length 0.62877   
     axis -2.02492e-015 90 90   XYZ
    dof rx rz
    limits (-90.0 90.0)
           (-45.0 45.0)
  end
  begin
     id 22 
     name lfingers
     direction 1 -4.49011e-011 6.34687e-027   
     length 0.506931   
     axis -4.04985e-015 90 90   XYZ
    dof rx
    limits (0.0 90.0)
  end
  begin
     id 23
     name lthumb
     direction 0.707107 -6.34982e-011 0.707107   
     length 0.727854   
     axis -90 45 2.85299e-015   XYZ
    dof rx rz
    limits (-45.0 45.0)
           (-45.0 45.0)
  end
  begin
     id 24 
     name rclavicle
     direction -0.945647 0.32488 0.0143075   
     length 3.52737  
     axis 0 0 0   XYZ 
    dof ry rz
    limits (-10.0 20.0)
           (-20.0 0.0)
  end
  begin
     id 25 
     name rhumerus
     direction -1 -4.48962e-011 1.92182e-027  
     length 5.4902   
     axis -180 30 90   XYZ
    dof rx ry rz
    limits (-90.0 60.0)
           (-90.0 90.0)
           (-90.0 90.0)
  end
  begin
     id 26 
     name rradius
     direction -1 -4.48967e-011 -5.97193e-028   
     length 3.20659   
     axis -180 30 90   XYZ
    dof rx
    limits (-10.0 170.0)
  end
  begin
     id 27 
     name rwrist
     direction -1 -4.48964e-011 1.58672e-027   
     length 1.6033   
     axis -1.65735e-015 -90 -90   XYZ
    dof ry
    limits (-180.0 0.0)
  end
  begin
     id 28
     name rhand
     direction -1 -4.49006e-011 3.17344e-027   
     length 0.691885   
     axis -2.02492e-015 -90 -90   XYZ
    dof rx rz
    limits (-90.0 90.0)
           (-45.0 45.0)
  end
  begin
     id 29
     name rfingers
     direction -1 -4.48908e-011 6.34687e-027   
     length 0.557815   
     axis -4.04985e-015 -90 -90   XYZ
    dof rx
    limits (0.0 90.0)
  end
  begin
     id 30
     name rthumb
     direction -0.707107 -6.34999e-011 0.707107   
     length 0.800915   
     axis -90 -45 -2.85299e-015   XYZ
    dof rx rz
    limits (-45.0 45.0)
           (-45.0 45.0)
  end
:hierarchy
  begin
    root lhipjoint rhipjoint lowerback
    lhipjoint lfemur
    lfemur ltibia
    ltibia lfoot
    lfoot ltoes
    rhipjoint rfemur
    rfemur rtibia
    rtibia rfoot
    rfoot rtoes
    lowerback upperback
    upperback thorax
    thorax lowerneck lclavicle rclavicle
    lowerneck upperneck
    upperneck head
    lclavicle lhumerus
    lhumerus lradius
    lradius lwrist
    lwrist lhand lthumb
    lhand lfingers
    rclavicle rhumerus
    rhumerus rradius
    rradius rwrist
    rwrist rhand rthumb
    rhand rfingers
  end

#!OML:ASF I:\Actors\actors\Patient Classification 1\Patient 1\Session 1\Subject1.ASF
:FULLY-SPECIFIED
:DEGREES
132
root 0.719464 17.4696 9.27505 9.29059 -2.67292 -8.6682
lowerback -0.631028 0.477048 5.4975
upperback -9.29296 1.04451 2.0195
thorax -9.43403 0.166481 -0.997812
lowerneck -9.28537 -5.44089 -5.26221
upperneck 10.7087 -8.14197 11.6762
head 5.45742 -3.46698 3.88263
rclavicle -1.43622e-014 2.38542e-015
rhumerus -50.4226 22.4553 -91.9649
rradius 61.9294
rwrist 19.2462
rhand 17.8916 -33.0392
rfingers 7.12502
rthumb 42.5661 -57.4367
lclavicle -1.43622e-014 2.38542e-015
lhumerus -53.2366 -25.9306 100.247
lradius 58.2575
lwrist 3.68692
lhand -20.8673 -11.7278
lfingers 7.12502
lthumb 5.50245 18.1808
rfemur -5.72716 23.4342 24.7225
rtibia 4.34271
rfoot -10.7774 -22.7465
rtoes 1.13752
lfemur 4.61473 -40.1861 -12.3775
ltibia -4.11901
lfoot -19.1139 49.8005
ltoes 8.6663
133
root 0.729632 17.4704 9.2643 9.20342 -2.73323 -8.65484
lowerback -0.563483 0.381499 5.40536
upperback -9.28812 0.922329 2.10467
thorax -9.47737 0.116856 -0.847456
lowerneck -9.3182 -5.30459 -5.27004
upperneck 10.8715 -7.95897 11.5966
head 5.4936 -3.37766 3.87473
rclavicle 2.48978e-014 -5.08889e-014
rhumerus -50.629 24.4712 -91.3621
rradius 66.0623
rwrist 18.8817
rhand 16.3434 -33.0486
rfingers 7.12502
rthumb 41.1146 -57.9284
lclavicle 2.48978e-014 -5.08889e-014
lhumerus -53.9766 -27.8594 100.125
lradius 62.7655
lwrist 3.86482
lhand -22.537 -12.1501
lfingers 7.12502
lthumb 3.89024 17.7941
rfemur -5.74404 23.368 24.6733
rtibia 4.45429
rfoot -10.797 -22.6391
rtoes 1.23252
lfemur 4.5591 -39.7066 -12.3533
ltibia -4.11056
lfoot -18.782 49.4082
ltoes 8.77918
134
root 0.74186 17.4719 9.25434 9.10818 -2.82906 -8.65336
lowerback -0.49739 0.352171 5.40281
upperback -9.28947 0.88804 2.11311
thorax -9.52033 0.0994754 -0.834743
lowerneck -9.37785 -5.23219 -5.20665
upperneck 11.118 -7.88178 11.5159
head 5.56717 -3.33371 3.84471
rclavicle -7.8023e-015 1.15295e-014
rhumerus -50.675 26.2238 -90.568
rradius 70.2062
rwrist 18.7252
rhand 15.3848 -33.1721
rfingers 7.12502
rthumb 40.2137 -58.3333
lclavicle -7.8023e-015 1.15295e-014
lhumerus -54.619 -29.9247 99.8301
lradius 67.3291
lwrist 4.30891
lhand -24.3315 -12.5265
lfingers 7.12502
lthumb 2.15724 17.4423
rfemur -5.74439 23.36 24.6426
rtibia 4.56976
rfoot -10.8502 -22.5542
rtoes 1.33103
lfemur 4.58098 -39.3434 -12.3908
ltibia -4.11089
lfoot -18.6354 49.1381
ltoes 9.07384
135
root 0.755294 17.474 9.24475 9.0066 -2.90241 -8.75255
lowerback -0.439268 0.346322 5.56207
upperback -9.28562 0.891097 2.10331
thorax -9.551 0.0868304 -0.934005
lowerneck -9.35325 -5.17236 -5.16743
upperneck 11.3053 -7.82998 11.5436
head 5.61599 -3.30071 3.85265
rclavicle -4.67144e-015 -1.94809e-014
rhumerus -50.5434 27.9428 -89.6261
rradius 74.3343
rwrist 18.4691
rhand 15.0407 -33.4151
rfingers 7.12502
rthumb 39.89 -58.6743
lclavicle -4.67144e-015 -1.94809e-014
lhumerus -55.0596 -32.0452 99.3211
lradius 71.8777
lwrist 4.80657
lhand -26.3544 -12.9506
lfingers 7.12502
lthumb 0.20343 17.029
rfemur -5.71772 23.3822 24.7467
rtibia 4.6832
rfoot -10.8509 -22.5376
rtoes 1.25213
lfemur 4.69625 -39.2764 -12.3847
ltibia -4.13111
lfoot -18.6982 49.093
ltoes 9.26102
136
root 0.769451 17.4765 9.23647 8.942 -2.94471 -8.82577
lowerback -0.430883 0.321149 5.69947
upperback -9.31414 0.864574 2.08998
thorax -9.59027 0.0605337 -1.02198
lowerneck -9.26957 -5.02749 -4.94709
upperneck 11.5664 -7.66966 11.3839
head 5.65322 -3.21926 3.78235
rclavicle 2.48481e-016 1.07344e-014
rhumerus -50.3081 29.7619 -88.5524
rradius 78.47
rwrist 18.0832
rhand 13.7864 -33.6794
rfingers 7.12502
rthumb 38.7081 -59.2824
lclavicle 2.48481e-016 1.07344e-014
lhumerus -55.5381 -34.2329 98.6654
lradius 76.5328
lwrist 5.31783
lhand -28.551 -13.3525
lfingers 7.12502
lthumb -1.91809 16.6186
rfemur -5.70582 23.3952 24.8003
rtibia 4.74731
rfoot -10.8458 -22.5518
rtoes 1.14374
lfemur 4.72965 -39.233 -12.3581
ltibia -4.11678
lfoot -18.9279 49.0076
ltoes 9.61915
137
root 0.784893 17.4785 9.23024 8.93716 -3.04582 -8.74501
lowerback -0.504571 0.301081 5.64964
upperback -9.38869 0.829796 2.05619
thorax -9.63165 0.0435675 -1.02637
lowerneck -9.09028 -4.72132 -4.31066
upperneck 11.848 -7.29397 10.8346
head 5.63274 -3.04273 3.54055
rclavicle -3.12589e-014 6.40087e-014
rhumerus -50.0291 31.6267 -87.2889
rradius 82.6724
rwrist 17.5666
rhand 10.701 -33.8524
rfingers 7.12502
rthumb 35.7909 -60.22
lclavicle -3.12589e-014 6.40087e-014
lhumerus -56.0577 -36.4394 97.8949
lradius 81.2383
lwrist 6.01688
lhand -30.5942 -13.5144
lfingers 7.12502
lthumb -3.89123 16.4298
rfemur -5.76738 23.3717 24.6236
rtibia 4.77683
rfoot -10.8662 -22.4896
rtoes 0.924652
lfemur 4.65142 -39.031 -12.4601
ltibia -4.04873
lfoot -19.0995 48.8113
ltoes 9.94401
